<svg width="23" height="22" viewBox="0 0 23 22" fill="none" xmlns="http://www.w3.org/2000/svg">
<path d="M13.5 11.833L11.5 6.5L9.5 11.833M13.5 11.833L14.5 14.5M13.5 11.833H9.5M9.5 11.833L8.5 14.5" stroke="black" stroke-width="2" stroke-linecap="round" stroke-linejoin="round"/>
<path d="M2.20723 9.29523C1.98318 9.51906 1.80544 9.78484 1.68418 10.0774C1.56291 10.37 1.50049 10.6835 1.50049 11.0002C1.50049 11.3169 1.56291 11.6305 1.68418 11.9231C1.80544 12.2156 1.98318 12.4814 2.20723 12.7052L9.79523 20.2932C10.0191 20.5173 10.2848 20.695 10.5774 20.8163C10.87 20.9376 11.1835 21 11.5002 21C11.8169 21 12.1305 20.9376 12.4231 20.8163C12.7156 20.695 12.9814 20.5173 13.2052 20.2932L20.7932 12.7052C21.0173 12.4814 21.195 12.2156 21.3163 11.9231C21.4376 11.6305 21.5 11.3169 21.5 11.0002C21.5 10.6835 21.4376 10.37 21.3163 10.0774C21.195 9.78484 21.0173 9.51906 20.7932 9.29523L13.2052 1.70723C12.9814 1.48318 12.7156 1.30544 12.4231 1.18418C12.1305 1.06291 11.8169 1.00049 11.5002 1.00049C11.1835 1.00049 10.87 1.06291 10.5774 1.18418C10.2848 1.30544 10.0191 1.48318 9.79523 1.70723L2.20723 9.29523Z" stroke="black" stroke-width="2" stroke-linecap="round" stroke-linejoin="round"/>
</svg>
