<svg width="24" height="24" viewBox="0 0 24 24" fill="none" xmlns="http://www.w3.org/2000/svg">
<path d="M6.25 2C5.65326 2 5.08097 2.23705 4.65901 2.65901C4.23705 3.08097 4 3.65326 4 4.25V19.75C4 20.3467 4.23705 20.919 4.65901 21.341C5.08097 21.7629 5.65326 22 6.25 22H17.75C18.0455 22 18.3381 21.9418 18.611 21.8287C18.884 21.7157 19.1321 21.5499 19.341 21.341C19.5499 21.1321 19.7157 20.884 19.8287 20.611C19.9418 20.3381 20 20.0455 20 19.75V4.25C20 3.95453 19.9418 3.66194 19.8287 3.38896C19.7157 3.11598 19.5499 2.86794 19.341 2.65901C19.1321 2.45008 18.884 2.28434 18.611 2.17127C18.3381 2.0582 18.0455 2 17.75 2H6.25ZM5.5 4.25C5.5 4.05109 5.57902 3.86032 5.71967 3.71967C5.86032 3.57902 6.05109 3.5 6.25 3.5H17.75C17.9489 3.5 18.1397 3.57902 18.2803 3.71967C18.421 3.86032 18.5 4.05109 18.5 4.25V19.75C18.5 19.9489 18.421 20.1397 18.2803 20.2803C18.1397 20.421 17.9489 20.5 17.75 20.5H6.25C6.05109 20.5 5.86032 20.421 5.71967 20.2803C5.57902 20.1397 5.5 19.9489 5.5 19.75V4.25ZM7.75 6.5C7.55109 6.5 7.36032 6.57902 7.21967 6.71967C7.07902 6.86032 7 7.05109 7 7.25C7 7.44891 7.07902 7.63968 7.21967 7.78033C7.36032 7.92098 7.55109 8 7.75 8H16.25C16.4489 8 16.6397 7.92098 16.7803 7.78033C16.921 7.63968 17 7.44891 17 7.25C17 7.05109 16.921 6.86032 16.7803 6.71967C16.6397 6.57902 16.4489 6.5 16.25 6.5H7.75ZM7 16.25C7 16.0511 7.07902 15.8603 7.21967 15.7197C7.36032 15.579 7.55109 15.5 7.75 15.5H16.25C16.4489 15.5 16.6397 15.579 16.7803 15.7197C16.921 15.8603 17 16.0511 17 16.25C17 16.4489 16.921 16.6397 16.7803 16.7803C16.6397 16.921 16.4489 17 16.25 17H7.75C7.55109 17 7.36032 16.921 7.21967 16.7803C7.07902 16.6397 7 16.4489 7 16.25ZM7.75 11C7.55109 11 7.36032 11.079 7.21967 11.2197C7.07902 11.3603 7 11.5511 7 11.75C7 11.9489 7.07902 12.1397 7.21967 12.2803C7.36032 12.421 7.55109 12.5 7.75 12.5H16.25C16.4489 12.5 16.6397 12.421 16.7803 12.2803C16.921 12.1397 17 11.9489 17 11.75C17 11.5511 16.921 11.3603 16.7803 11.2197C16.6397 11.079 16.4489 11 16.25 11H7.75Z" fill="white"/>
</svg>
