<svg width="32" height="32" viewBox="0 0 32 32" fill="none" xmlns="http://www.w3.org/2000/svg">
<path fill-rule="evenodd" clip-rule="evenodd" d="M11.8933 24.6591C10.5472 25.0943 8.99413 25.0858 7.7248 24.4351C4.7936 22.929 3.52426 19.0463 4.70399 14.9332C5.23306 13.0879 6.16533 11.2959 8.13653 9.48895C10.1077 7.67989 12.8427 6.61322 14.1099 6.61322C14.2165 6.61153 14.3224 6.63089 14.4216 6.67021C14.5207 6.70952 14.6111 6.76802 14.6876 6.84233C14.7641 6.91665 14.8252 7.00533 14.8674 7.10329C14.9095 7.20126 14.9319 7.30658 14.9333 7.41322C14.9333 7.85482 14.5579 8.21322 14.1099 8.21322C12.6613 8.21322 11.3664 9.00255 9.83253 10.1631C8.65919 11.0527 7.74186 12.1898 7.23626 13.1796C6.2656 15.074 6.23359 17.745 7.80159 18.4554C8.16562 18.0422 8.61426 17.7121 9.11707 17.4876C9.61987 17.2631 10.1651 17.1493 10.7157 17.154C13.2757 17.154 14.784 19.2127 14.7179 21.0772C14.656 22.8586 13.5232 24.1279 11.8933 24.6591ZM24.6933 24.6591C23.3472 25.0943 21.7941 25.0858 20.5248 24.4351C17.5936 22.929 16.3243 19.0463 17.504 14.9332C18.0331 13.0879 18.9653 11.2959 20.9365 9.48895C22.9077 7.67989 25.6427 6.61322 26.9099 6.61322C27.0165 6.61153 27.1224 6.63089 27.2216 6.67021C27.3207 6.70952 27.4111 6.76802 27.4876 6.84233C27.5641 6.91665 27.6252 7.00533 27.6674 7.10329C27.7095 7.20126 27.7319 7.30658 27.7333 7.41322C27.7333 7.85482 27.3579 8.21322 26.9099 8.21322C25.4613 8.21322 24.1664 9.00255 22.6325 10.1631C21.4592 11.0527 20.5419 12.1898 20.0363 13.1796C19.0656 15.074 19.0336 17.745 20.6016 18.4554C21.3547 17.6319 22.3381 17.154 23.5157 17.154C26.0757 17.154 27.584 19.2127 27.5179 21.0772C27.456 22.8586 26.3232 24.1279 24.6933 24.6591Z" fill="black"/>
</svg>
