<svg width="133" height="44" viewBox="0 0 133 44" fill="none" xmlns="http://www.w3.org/2000/svg">
<rect width="132.85" height="44" rx="22" fill="white"/>
<rect x="1" y="1" width="130.85" height="42" rx="21" stroke="black" stroke-opacity="0.2" stroke-width="2"/>
<path d="M34.0394 31.1976C32.9507 32.253 31.7619 32.0864 30.6176 31.5864C29.4067 31.0754 28.2957 31.0531 27.0181 31.5864C25.4183 32.2752 24.574 32.0752 23.6185 31.1976C18.197 25.6094 18.9969 17.0994 25.1517 16.7883C26.6515 16.8661 27.6958 17.6104 28.5734 17.6771C29.8844 17.4104 31.1398 16.6439 32.5396 16.7438C34.2172 16.8772 35.4837 17.5437 36.3169 18.7436C32.8507 20.8211 33.6728 25.3872 36.8502 26.6648C36.2169 28.3313 35.3948 29.9866 34.0283 31.2087L34.0394 31.1976ZM28.4624 16.7216C28.2957 14.2442 30.3066 12.2 32.6174 12C32.9396 14.8663 30.0177 16.9994 28.4624 16.7216Z" fill="black"/>
<path d="M45.3536 13.416C45.9403 13.416 46.4549 13.5307 46.8976 13.76C47.3456 13.9893 47.6896 14.3173 47.9296 14.744C48.1749 15.1653 48.2976 15.656 48.2976 16.216C48.2976 16.776 48.1749 17.2667 47.9296 17.688C47.6896 18.104 47.3456 18.4267 46.8976 18.656C46.4549 18.8853 45.9403 19 45.3536 19H43.4016V13.416H45.3536ZM45.3136 18.048C45.9003 18.048 46.3536 17.888 46.6736 17.568C46.9936 17.248 47.1536 16.7973 47.1536 16.216C47.1536 15.6347 46.9936 15.1813 46.6736 14.856C46.3536 14.5253 45.9003 14.36 45.3136 14.36H44.5216V18.048H45.3136ZM51.104 19.072C50.6773 19.072 50.2933 18.9787 49.952 18.792C49.6107 18.6 49.3413 18.3307 49.144 17.984C48.952 17.6373 48.856 17.2373 48.856 16.784C48.856 16.3307 48.9547 15.9307 49.152 15.584C49.3547 15.2373 49.6293 14.9707 49.976 14.784C50.3227 14.592 50.7093 14.496 51.136 14.496C51.5627 14.496 51.9493 14.592 52.296 14.784C52.6427 14.9707 52.9147 15.2373 53.112 15.584C53.3147 15.9307 53.416 16.3307 53.416 16.784C53.416 17.2373 53.312 17.6373 53.104 17.984C52.9013 18.3307 52.624 18.6 52.272 18.792C51.9253 18.9787 51.536 19.072 51.104 19.072ZM51.104 18.096C51.3067 18.096 51.496 18.048 51.672 17.952C51.8533 17.8507 51.9973 17.7013 52.104 17.504C52.2107 17.3067 52.264 17.0667 52.264 16.784C52.264 16.3627 52.152 16.04 51.928 15.816C51.7093 15.5867 51.44 15.472 51.12 15.472C50.8 15.472 50.5307 15.5867 50.312 15.816C50.0987 16.04 49.992 16.3627 49.992 16.784C49.992 17.2053 50.096 17.5307 50.304 17.76C50.5173 17.984 50.784 18.096 51.104 18.096ZM60.3815 14.568L59.0855 19H57.8775L57.0695 15.904L56.2615 19H55.0455L53.7415 14.568H54.8775L55.6615 17.944L56.5095 14.568H57.6935L58.5255 17.936L59.3095 14.568H60.3815ZM63.4435 14.504C63.9715 14.504 64.3982 14.672 64.7235 15.008C65.0489 15.3387 65.2115 15.8027 65.2115 16.4V19H64.0915V16.552C64.0915 16.2 64.0035 15.9307 63.8275 15.744C63.6515 15.552 63.4115 15.456 63.1075 15.456C62.7982 15.456 62.5529 15.552 62.3715 15.744C62.1955 15.9307 62.1075 16.2 62.1075 16.552V19H60.9875V14.568H62.1075V15.12C62.2569 14.928 62.4462 14.7787 62.6755 14.672C62.9102 14.56 63.1662 14.504 63.4435 14.504ZM67.3966 13.08V19H66.2766V13.08H67.3966ZM70.4712 19.072C70.0445 19.072 69.6605 18.9787 69.3192 18.792C68.9778 18.6 68.7085 18.3307 68.5112 17.984C68.3192 17.6373 68.2232 17.2373 68.2232 16.784C68.2232 16.3307 68.3218 15.9307 68.5192 15.584C68.7218 15.2373 68.9965 14.9707 69.3432 14.784C69.6898 14.592 70.0765 14.496 70.5032 14.496C70.9298 14.496 71.3165 14.592 71.6632 14.784C72.0098 14.9707 72.2818 15.2373 72.4792 15.584C72.6818 15.9307 72.7832 16.3307 72.7832 16.784C72.7832 17.2373 72.6792 17.6373 72.4712 17.984C72.2685 18.3307 71.9912 18.6 71.6392 18.792C71.2925 18.9787 70.9032 19.072 70.4712 19.072ZM70.4712 18.096C70.6738 18.096 70.8632 18.048 71.0392 17.952C71.2205 17.8507 71.3645 17.7013 71.4712 17.504C71.5778 17.3067 71.6312 17.0667 71.6312 16.784C71.6312 16.3627 71.5192 16.04 71.2952 15.816C71.0765 15.5867 70.8072 15.472 70.4872 15.472C70.1672 15.472 69.8978 15.5867 69.6792 15.816C69.4658 16.04 69.3592 16.3627 69.3592 16.784C69.3592 17.2053 69.4632 17.5307 69.6712 17.76C69.8845 17.984 70.1512 18.096 70.4712 18.096ZM73.3167 16.768C73.3167 16.32 73.4047 15.9227 73.5807 15.576C73.7621 15.2293 74.0047 14.9627 74.3087 14.776C74.6181 14.5893 74.9621 14.496 75.3407 14.496C75.6714 14.496 75.9594 14.5627 76.2047 14.696C76.4554 14.8293 76.6554 14.9973 76.8047 15.2V14.568H77.9327V19H76.8047V18.352C76.6607 18.56 76.4607 18.7333 76.2047 18.872C75.9541 19.0053 75.6634 19.072 75.3327 19.072C74.9594 19.072 74.6181 18.976 74.3087 18.784C74.0047 18.592 73.7621 18.3227 73.5807 17.976C73.4047 17.624 73.3167 17.2213 73.3167 16.768ZM76.8047 16.784C76.8047 16.512 76.7514 16.28 76.6447 16.088C76.5381 15.8907 76.3941 15.7413 76.2127 15.64C76.0314 15.5333 75.8367 15.48 75.6287 15.48C75.4207 15.48 75.2287 15.5307 75.0527 15.632C74.8767 15.7333 74.7327 15.8827 74.6207 16.08C74.5141 16.272 74.4607 16.5013 74.4607 16.768C74.4607 17.0347 74.5141 17.2693 74.6207 17.472C74.7327 17.6693 74.8767 17.8213 75.0527 17.928C75.2341 18.0347 75.4261 18.088 75.6287 18.088C75.8367 18.088 76.0314 18.0373 76.2127 17.936C76.3941 17.8293 76.5381 17.68 76.6447 17.488C76.7514 17.2907 76.8047 17.056 76.8047 16.784ZM78.7386 16.768C78.7386 16.32 78.8266 15.9227 79.0026 15.576C79.1839 15.2293 79.4293 14.9627 79.7386 14.776C80.0479 14.5893 80.3919 14.496 80.7706 14.496C81.0586 14.496 81.3333 14.56 81.5946 14.688C81.8559 14.8107 82.0639 14.976 82.2186 15.184V13.08H83.3546V19H82.2186V18.344C82.0799 18.5627 81.8853 18.7387 81.6346 18.872C81.3839 19.0053 81.0933 19.072 80.7626 19.072C80.3893 19.072 80.0479 18.976 79.7386 18.784C79.4293 18.592 79.1839 18.3227 79.0026 17.976C78.8266 17.624 78.7386 17.2213 78.7386 16.768ZM82.2266 16.784C82.2266 16.512 82.1733 16.28 82.0666 16.088C81.9599 15.8907 81.8159 15.7413 81.6346 15.64C81.4533 15.5333 81.2586 15.48 81.0506 15.48C80.8426 15.48 80.6506 15.5307 80.4746 15.632C80.2986 15.7333 80.1546 15.8827 80.0426 16.08C79.9359 16.272 79.8826 16.5013 79.8826 16.768C79.8826 17.0347 79.9359 17.2693 80.0426 17.472C80.1546 17.6693 80.2986 17.8213 80.4746 17.928C80.6559 18.0347 80.8479 18.088 81.0506 18.088C81.2586 18.088 81.4533 18.0373 81.6346 17.936C81.8159 17.8293 81.9599 17.68 82.0666 17.488C82.1733 17.2907 82.2266 17.056 82.2266 16.784ZM88.3227 19.072C87.8961 19.072 87.5121 18.9787 87.1707 18.792C86.8294 18.6 86.5601 18.3307 86.3627 17.984C86.1707 17.6373 86.0747 17.2373 86.0747 16.784C86.0747 16.3307 86.1734 15.9307 86.3707 15.584C86.5734 15.2373 86.8481 14.9707 87.1947 14.784C87.5414 14.592 87.9281 14.496 88.3547 14.496C88.7814 14.496 89.1681 14.592 89.5147 14.784C89.8614 14.9707 90.1334 15.2373 90.3307 15.584C90.5334 15.9307 90.6347 16.3307 90.6347 16.784C90.6347 17.2373 90.5307 17.6373 90.3227 17.984C90.1201 18.3307 89.8427 18.6 89.4907 18.792C89.1441 18.9787 88.7547 19.072 88.3227 19.072ZM88.3227 18.096C88.5254 18.096 88.7147 18.048 88.8907 17.952C89.0721 17.8507 89.2161 17.7013 89.3227 17.504C89.4294 17.3067 89.4827 17.0667 89.4827 16.784C89.4827 16.3627 89.3707 16.04 89.1467 15.816C88.9281 15.5867 88.6587 15.472 88.3387 15.472C88.0187 15.472 87.7494 15.5867 87.5307 15.816C87.3174 16.04 87.2107 16.3627 87.2107 16.784C87.2107 17.2053 87.3147 17.5307 87.5227 17.76C87.7361 17.984 88.0027 18.096 88.3227 18.096ZM93.9123 14.504C94.4403 14.504 94.867 14.672 95.1923 15.008C95.5176 15.3387 95.6803 15.8027 95.6803 16.4V19H94.5603V16.552C94.5603 16.2 94.4723 15.9307 94.2963 15.744C94.1203 15.552 93.8803 15.456 93.5763 15.456C93.267 15.456 93.0216 15.552 92.8403 15.744C92.6643 15.9307 92.5763 16.2 92.5763 16.552V19H91.4563V14.568H92.5763V15.12C92.7256 14.928 92.915 14.7787 93.1443 14.672C93.379 14.56 93.635 14.504 93.9123 14.504ZM99.9556 15.488V17.632C99.9556 17.7813 99.9903 17.8907 100.06 17.96C100.134 18.024 100.257 18.056 100.428 18.056H100.948V19H100.244C99.2996 19 98.8276 18.5413 98.8276 17.624V15.488H98.2996V14.568H98.8276V13.472H99.9556V14.568H100.948V15.488H99.9556ZM104.249 14.504C104.585 14.504 104.884 14.5787 105.145 14.728C105.407 14.872 105.609 15.088 105.753 15.376C105.903 15.6587 105.977 16 105.977 16.4V19H104.857V16.552C104.857 16.2 104.769 15.9307 104.593 15.744C104.417 15.552 104.177 15.456 103.873 15.456C103.564 15.456 103.319 15.552 103.137 15.744C102.961 15.9307 102.873 16.2 102.873 16.552V19H101.753V13.08H102.873V15.12C103.017 14.928 103.209 14.7787 103.449 14.672C103.689 14.56 103.956 14.504 104.249 14.504ZM111.162 16.688C111.162 16.848 111.152 16.992 111.13 17.12H107.89C107.917 17.44 108.029 17.6907 108.226 17.872C108.424 18.0533 108.666 18.144 108.954 18.144C109.37 18.144 109.666 17.9653 109.842 17.608H111.05C110.922 18.0347 110.677 18.3867 110.314 18.664C109.952 18.936 109.506 19.072 108.978 19.072C108.552 19.072 108.168 18.9787 107.826 18.792C107.49 18.6 107.226 18.3307 107.034 17.984C106.848 17.6373 106.754 17.2373 106.754 16.784C106.754 16.3253 106.848 15.9227 107.034 15.576C107.221 15.2293 107.482 14.9627 107.818 14.776C108.154 14.5893 108.541 14.496 108.978 14.496C109.4 14.496 109.776 14.5867 110.106 14.768C110.442 14.9493 110.701 15.208 110.882 15.544C111.069 15.8747 111.162 16.256 111.162 16.688ZM110.002 16.368C109.997 16.08 109.893 15.8507 109.69 15.68C109.488 15.504 109.24 15.416 108.946 15.416C108.669 15.416 108.434 15.5013 108.242 15.672C108.056 15.8373 107.941 16.0693 107.898 16.368H110.002Z" fill="#0E0E0E"/>
<path d="M48.8136 29.404H45.4776L44.9256 31H43.1616L46.1736 22.612H48.1296L51.1416 31H49.3656L48.8136 29.404ZM48.3576 28.06L47.1456 24.556L45.9336 28.06H48.3576ZM58.3755 25.216C58.3755 25.664 58.2675 26.084 58.0515 26.476C57.8435 26.868 57.5115 27.184 57.0555 27.424C56.6075 27.664 56.0395 27.784 55.3515 27.784H53.9475V31H52.2675V22.624H55.3515C55.9995 22.624 56.5515 22.736 57.0075 22.96C57.4635 23.184 57.8035 23.492 58.0275 23.884C58.2595 24.276 58.3755 24.72 58.3755 25.216ZM55.2795 26.428C55.7435 26.428 56.0875 26.324 56.3115 26.116C56.5355 25.9 56.6475 25.6 56.6475 25.216C56.6475 24.4 56.1915 23.992 55.2795 23.992H53.9475V26.428H55.2795ZM65.6762 25.216C65.6762 25.664 65.5682 26.084 65.3522 26.476C65.1442 26.868 64.8122 27.184 64.3562 27.424C63.9082 27.664 63.3402 27.784 62.6522 27.784H61.2482V31H59.5682V22.624H62.6522C63.3002 22.624 63.8522 22.736 64.3082 22.96C64.7642 23.184 65.1042 23.492 65.3282 23.884C65.5602 24.276 65.6762 24.72 65.6762 25.216ZM62.5802 26.428C63.0442 26.428 63.3882 26.324 63.6122 26.116C63.8362 25.9 63.9482 25.6 63.9482 25.216C63.9482 24.4 63.4922 23.992 62.5802 23.992H61.2482V26.428H62.5802ZM72.6204 31.084C72.0364 31.084 71.5084 30.984 71.0364 30.784C70.5724 30.584 70.2044 30.296 69.9324 29.92C69.6604 29.544 69.5204 29.1 69.5124 28.588H71.3124C71.3364 28.932 71.4564 29.204 71.6724 29.404C71.8964 29.604 72.2004 29.704 72.5844 29.704C72.9764 29.704 73.2844 29.612 73.5084 29.428C73.7324 29.236 73.8444 28.988 73.8444 28.684C73.8444 28.436 73.7684 28.232 73.6164 28.072C73.4644 27.912 73.2724 27.788 73.0404 27.7C72.8164 27.604 72.5044 27.5 72.1044 27.388C71.5604 27.228 71.1164 27.072 70.7724 26.92C70.4364 26.76 70.1444 26.524 69.8964 26.212C69.6564 25.892 69.5364 25.468 69.5364 24.94C69.5364 24.444 69.6604 24.012 69.9084 23.644C70.1564 23.276 70.5044 22.996 70.9524 22.804C71.4004 22.604 71.9124 22.504 72.4884 22.504C73.3524 22.504 74.0524 22.716 74.5884 23.14C75.1324 23.556 75.4324 24.14 75.4884 24.892H73.6404C73.6244 24.604 73.5004 24.368 73.2684 24.184C73.0444 23.992 72.7444 23.896 72.3684 23.896C72.0404 23.896 71.7764 23.98 71.5764 24.148C71.3844 24.316 71.2884 24.56 71.2884 24.88C71.2884 25.104 71.3604 25.292 71.5044 25.444C71.6564 25.588 71.8404 25.708 72.0564 25.804C72.2804 25.892 72.5924 25.996 72.9924 26.116C73.5364 26.276 73.9804 26.436 74.3244 26.596C74.6684 26.756 74.9644 26.996 75.2124 27.316C75.4604 27.636 75.5844 28.056 75.5844 28.576C75.5844 29.024 75.4684 29.44 75.2364 29.824C75.0044 30.208 74.6644 30.516 74.2164 30.748C73.7684 30.972 73.2364 31.084 72.6204 31.084ZM78.9969 25.732V28.948C78.9969 29.172 79.0489 29.336 79.1529 29.44C79.2649 29.536 79.4489 29.584 79.7049 29.584H80.4849V31H79.4289C78.0129 31 77.3049 30.312 77.3049 28.936V25.732H76.5129V24.352H77.3049V22.708H78.9969V24.352H80.4849V25.732H78.9969ZM84.6452 31.108C84.0052 31.108 83.4292 30.968 82.9172 30.688C82.4052 30.4 82.0012 29.996 81.7052 29.476C81.4172 28.956 81.2732 28.356 81.2732 27.676C81.2732 26.996 81.4212 26.396 81.7172 25.876C82.0212 25.356 82.4332 24.956 82.9532 24.676C83.4732 24.388 84.0532 24.244 84.6932 24.244C85.3332 24.244 85.9132 24.388 86.4332 24.676C86.9532 24.956 87.3612 25.356 87.6572 25.876C87.9612 26.396 88.1132 26.996 88.1132 27.676C88.1132 28.356 87.9572 28.956 87.6452 29.476C87.3412 29.996 86.9252 30.4 86.3972 30.688C85.8772 30.968 85.2932 31.108 84.6452 31.108ZM84.6452 29.644C84.9492 29.644 85.2332 29.572 85.4972 29.428C85.7692 29.276 85.9852 29.052 86.1452 28.756C86.3052 28.46 86.3852 28.1 86.3852 27.676C86.3852 27.044 86.2172 26.56 85.8812 26.224C85.5532 25.88 85.1492 25.708 84.6692 25.708C84.1892 25.708 83.7852 25.88 83.4572 26.224C83.1372 26.56 82.9772 27.044 82.9772 27.676C82.9772 28.308 83.1332 28.796 83.4452 29.14C83.7652 29.476 84.1652 29.644 84.6452 29.644ZM91.0256 25.384C91.2416 25.032 91.5216 24.756 91.8656 24.556C92.2176 24.356 92.6176 24.256 93.0656 24.256V26.02H92.6216C92.0936 26.02 91.6936 26.144 91.4216 26.392C91.1576 26.64 91.0256 27.072 91.0256 27.688V31H89.3456V24.352H91.0256V25.384ZM100.377 27.532C100.377 27.772 100.361 27.988 100.329 28.18H95.4691C95.5091 28.66 95.6771 29.036 95.9731 29.308C96.2691 29.58 96.6331 29.716 97.0651 29.716C97.6891 29.716 98.1331 29.448 98.3971 28.912H100.209C100.017 29.552 99.6491 30.08 99.1051 30.496C98.5611 30.904 97.8931 31.108 97.1011 31.108C96.4611 31.108 95.8851 30.968 95.3731 30.688C94.8691 30.4 94.4731 29.996 94.1851 29.476C93.9051 28.956 93.7651 28.356 93.7651 27.676C93.7651 26.988 93.9051 26.384 94.1851 25.864C94.4651 25.344 94.8571 24.944 95.3611 24.664C95.8651 24.384 96.4451 24.244 97.1011 24.244C97.7331 24.244 98.2971 24.38 98.7931 24.652C99.2971 24.924 99.6851 25.312 99.9571 25.816C100.237 26.312 100.377 26.884 100.377 27.532ZM98.6371 27.052C98.6291 26.62 98.4731 26.276 98.1691 26.02C97.8651 25.756 97.4931 25.624 97.0531 25.624C96.6371 25.624 96.2851 25.752 95.9971 26.008C95.7171 26.256 95.5451 26.604 95.4811 27.052H98.6371Z" fill="#0E0E0E"/>
</svg>
