<svg width="132" height="43" viewBox="0 0 132 43" fill="none" xmlns="http://www.w3.org/2000/svg">
<rect width="132" height="42.9596" rx="21.4798" fill="white"/>
<rect x="1" y="1" width="130" height="40.9596" rx="20.4798" stroke="black" stroke-opacity="0.2" stroke-width="2"/>
<path d="M23.9741 29.5017C23.8921 29.5827 23.9901 29.7157 24.0911 29.6607C26.6801 28.2607 30.1741 26.3697 33.1271 24.7657C33.141 24.7582 33.1529 24.7476 33.1618 24.7346C33.1708 24.7217 33.1766 24.7068 33.1787 24.6912C33.1809 24.6757 33.1793 24.6598 33.1742 24.6449C33.169 24.63 33.1604 24.6166 33.1491 24.6057L31.0691 22.5577C31.0598 22.5483 31.0488 22.5408 31.0366 22.5358C31.0244 22.5307 31.0113 22.5281 30.9981 22.5281C30.9849 22.5281 30.9718 22.5307 30.9597 22.5358C30.9475 22.5408 30.9364 22.5483 30.9271 22.5577L23.9741 29.5017ZM30.9211 20.3037C30.9398 20.3223 30.9652 20.3327 30.9916 20.3327C31.018 20.3327 31.0434 20.3223 31.0621 20.3037L33.1441 18.2237C33.1552 18.2127 33.1635 18.1992 33.1685 18.1844C33.1735 18.1696 33.1749 18.1538 33.1726 18.1384C33.1704 18.1229 33.1646 18.1082 33.1556 18.0954C33.1467 18.0826 33.1349 18.0721 33.1211 18.0647L23.9421 13.1127C23.8411 13.0577 23.7421 13.1907 23.8241 13.2727L30.9211 20.3037ZM20.0001 12.7237C20.0001 12.4917 20.0351 12.2967 20.0961 12.1367C20.1591 11.9717 20.3681 11.9587 20.4941 12.0837L29.8591 21.3627C29.8685 21.372 29.8759 21.383 29.881 21.3952C29.8861 21.4074 29.8887 21.4205 29.8887 21.4337C29.8887 21.4469 29.8861 21.4599 29.881 21.4721C29.8759 21.4843 29.8685 21.4954 29.8591 21.5047L20.4601 30.8747C20.3221 31.0137 20.0931 30.9797 20.0481 30.7897C20.0146 30.6397 19.9985 30.4863 20.0001 30.3327V12.7237ZM34.6881 23.9167C34.6692 23.9269 34.6476 23.9307 34.6263 23.9277C34.605 23.9246 34.5853 23.9148 34.5701 23.8997L32.1321 21.4997C32.1227 21.4904 32.1153 21.4793 32.1102 21.4671C32.1051 21.4549 32.1025 21.4419 32.1025 21.4287C32.1025 21.4155 32.1051 21.4024 32.1102 21.3902C32.1153 21.378 32.1227 21.367 32.1321 21.3577L34.5831 18.9207C34.5985 18.9055 34.6185 18.8957 34.6399 18.8928C34.6614 18.8899 34.6832 18.8941 34.7021 18.9047C36.1025 19.6713 37.5059 20.4327 38.9121 21.1887C38.9298 21.1985 38.9441 21.2135 38.9531 21.2317C38.9958 21.3284 39.0096 21.4353 38.9931 21.5397C38.9909 21.5539 38.9853 21.5675 38.9768 21.5791C38.9683 21.5908 38.9571 21.6002 38.9441 21.6067C38.6591 21.7567 37.7041 22.2767 36.3721 23.0007L36.3641 23.0047L34.6881 23.9167Z" fill="black"/>
<path d="M49.44 14.576C49.312 14.3413 49.136 14.1626 48.912 14.04C48.688 13.9173 48.4267 13.856 48.128 13.856C47.7973 13.856 47.504 13.9306 47.248 14.08C46.992 14.2293 46.792 14.4426 46.648 14.72C46.504 14.9973 46.432 15.3173 46.432 15.68C46.432 16.0533 46.504 16.3786 46.648 16.656C46.7973 16.9333 47.0027 17.1466 47.264 17.296C47.5253 17.4453 47.8293 17.52 48.176 17.52C48.6027 17.52 48.952 17.408 49.224 17.184C49.496 16.9546 49.6747 16.6373 49.76 16.232H47.84V15.376H50.864V16.352C50.7893 16.7413 50.6293 17.1013 50.384 17.432C50.1387 17.7626 49.8213 18.0293 49.432 18.232C49.048 18.4293 48.616 18.528 48.136 18.528C47.5973 18.528 47.1093 18.408 46.672 18.168C46.24 17.9226 45.8987 17.584 45.648 17.152C45.4027 16.72 45.28 16.2293 45.28 15.68C45.28 15.1306 45.4027 14.64 45.648 14.208C45.8987 13.7706 46.24 13.432 46.672 13.192C47.1093 12.9466 47.5947 12.824 48.128 12.824C48.7573 12.824 49.304 12.9786 49.768 13.288C50.232 13.592 50.552 14.0213 50.728 14.576H49.44ZM55.8126 16.168C55.8126 16.328 55.802 16.472 55.7806 16.6H52.5406C52.5673 16.92 52.6793 17.1706 52.8766 17.352C53.074 17.5333 53.3166 17.624 53.6046 17.624C54.0206 17.624 54.3166 17.4453 54.4926 17.088H55.7006C55.5726 17.5146 55.3273 17.8666 54.9646 18.144C54.602 18.416 54.1566 18.552 53.6286 18.552C53.202 18.552 52.818 18.4586 52.4766 18.272C52.1406 18.08 51.8766 17.8106 51.6846 17.464C51.498 17.1173 51.4046 16.7173 51.4046 16.264C51.4046 15.8053 51.498 15.4026 51.6846 15.056C51.8713 14.7093 52.1326 14.4426 52.4686 14.256C52.8046 14.0693 53.1913 13.976 53.6286 13.976C54.05 13.976 54.426 14.0666 54.7566 14.248C55.0926 14.4293 55.3513 14.688 55.5326 15.024C55.7193 15.3546 55.8126 15.736 55.8126 16.168ZM54.6526 15.848C54.6473 15.56 54.5433 15.3306 54.3406 15.16C54.138 14.984 53.89 14.896 53.5966 14.896C53.3193 14.896 53.0846 14.9813 52.8926 15.152C52.706 15.3173 52.5913 15.5493 52.5486 15.848H54.6526ZM57.9341 14.968V17.112C57.9341 17.2613 57.9688 17.3706 58.0381 17.44C58.1128 17.504 58.2355 17.536 58.4061 17.536H58.9261V18.48H58.2221C57.2781 18.48 56.8061 18.0213 56.8061 17.104V14.968H56.2781V14.048H56.8061V12.952H57.9341V14.048H58.9261V14.968H57.9341ZM62.7579 12.896V18.48H61.6379V12.896H62.7579ZM67.6645 12.896V13.8H66.1765V18.48H65.0565V13.8H63.5685V12.896H67.6645ZM72.3559 18.552C71.9293 18.552 71.5453 18.4586 71.2039 18.272C70.8626 18.08 70.5933 17.8106 70.3959 17.464C70.2039 17.1173 70.1079 16.7173 70.1079 16.264C70.1079 15.8106 70.2066 15.4106 70.4039 15.064C70.6066 14.7173 70.8813 14.4506 71.2279 14.264C71.5746 14.072 71.9613 13.976 72.3879 13.976C72.8146 13.976 73.2013 14.072 73.5479 14.264C73.8946 14.4506 74.1666 14.7173 74.3639 15.064C74.5666 15.4106 74.6679 15.8106 74.6679 16.264C74.6679 16.7173 74.5639 17.1173 74.3559 17.464C74.1533 17.8106 73.8759 18.08 73.5239 18.272C73.1773 18.4586 72.7879 18.552 72.3559 18.552ZM72.3559 17.576C72.5586 17.576 72.7479 17.528 72.9239 17.432C73.1053 17.3306 73.2493 17.1813 73.3559 16.984C73.4626 16.7866 73.5159 16.5466 73.5159 16.264C73.5159 15.8426 73.4039 15.52 73.1799 15.296C72.9613 15.0666 72.6919 14.952 72.3719 14.952C72.0519 14.952 71.7826 15.0666 71.5639 15.296C71.3506 15.52 71.2439 15.8426 71.2439 16.264C71.2439 16.6853 71.3479 17.0106 71.5559 17.24C71.7693 17.464 72.0359 17.576 72.3559 17.576ZM77.9455 13.984C78.4735 13.984 78.9002 14.152 79.2255 14.488C79.5508 14.8186 79.7135 15.2826 79.7135 15.88V18.48H78.5935V16.032C78.5935 15.68 78.5055 15.4106 78.3295 15.224C78.1535 15.032 77.9135 14.936 77.6095 14.936C77.3002 14.936 77.0548 15.032 76.8735 15.224C76.6975 15.4106 76.6095 15.68 76.6095 16.032V18.48H75.4895V14.048H76.6095V14.6C76.7588 14.408 76.9482 14.2586 77.1775 14.152C77.4122 14.04 77.6682 13.984 77.9455 13.984Z" fill="#0E0E0E"/>
<path d="M51.66 24.624C51.468 24.272 51.204 24.004 50.868 23.82C50.532 23.636 50.14 23.544 49.692 23.544C49.196 23.544 48.756 23.656 48.372 23.88C47.988 24.104 47.688 24.424 47.472 24.84C47.256 25.256 47.148 25.736 47.148 26.28C47.148 26.84 47.256 27.328 47.472 27.744C47.696 28.16 48.004 28.48 48.396 28.704C48.788 28.928 49.244 29.04 49.764 29.04C50.404 29.04 50.928 28.872 51.336 28.536C51.744 28.192 52.012 27.716 52.14 27.108H49.26V25.824H53.796V27.288C53.684 27.872 53.444 28.412 53.076 28.908C52.708 29.404 52.232 29.804 51.648 30.108C51.072 30.404 50.424 30.552 49.704 30.552C48.896 30.552 48.164 30.372 47.508 30.012C46.86 29.644 46.348 29.136 45.972 28.488C45.604 27.84 45.42 27.104 45.42 26.28C45.42 25.456 45.604 24.72 45.972 24.072C46.348 23.416 46.86 22.908 47.508 22.548C48.164 22.18 48.892 21.996 49.692 21.996C50.636 21.996 51.456 22.228 52.152 22.692C52.848 23.148 53.328 23.792 53.592 24.624H51.66ZM57.9909 30.588C57.3509 30.588 56.7749 30.448 56.2629 30.168C55.7509 29.88 55.3469 29.476 55.0509 28.956C54.7629 28.436 54.6189 27.836 54.6189 27.156C54.6189 26.476 54.7669 25.876 55.0629 25.356C55.3669 24.836 55.7789 24.436 56.2989 24.156C56.8189 23.868 57.3989 23.724 58.0389 23.724C58.6789 23.724 59.2589 23.868 59.7789 24.156C60.2989 24.436 60.7069 24.836 61.0029 25.356C61.3069 25.876 61.4589 26.476 61.4589 27.156C61.4589 27.836 61.3029 28.436 60.9909 28.956C60.6869 29.476 60.2709 29.88 59.7429 30.168C59.2229 30.448 58.6389 30.588 57.9909 30.588ZM57.9909 29.124C58.2949 29.124 58.5789 29.052 58.8429 28.908C59.1149 28.756 59.3309 28.532 59.4909 28.236C59.6509 27.94 59.7309 27.58 59.7309 27.156C59.7309 26.524 59.5629 26.04 59.2269 25.704C58.8989 25.36 58.4949 25.188 58.0149 25.188C57.5349 25.188 57.1309 25.36 56.8029 25.704C56.4829 26.04 56.3229 26.524 56.3229 27.156C56.3229 27.788 56.4789 28.276 56.7909 28.62C57.1109 28.956 57.5109 29.124 57.9909 29.124ZM65.6433 30.588C65.0033 30.588 64.4273 30.448 63.9153 30.168C63.4033 29.88 62.9993 29.476 62.7033 28.956C62.4153 28.436 62.2713 27.836 62.2713 27.156C62.2713 26.476 62.4193 25.876 62.7153 25.356C63.0193 24.836 63.4313 24.436 63.9513 24.156C64.4713 23.868 65.0513 23.724 65.6913 23.724C66.3313 23.724 66.9113 23.868 67.4313 24.156C67.9513 24.436 68.3593 24.836 68.6553 25.356C68.9593 25.876 69.1113 26.476 69.1113 27.156C69.1113 27.836 68.9553 28.436 68.6433 28.956C68.3393 29.476 67.9233 29.88 67.3953 30.168C66.8753 30.448 66.2913 30.588 65.6433 30.588ZM65.6433 29.124C65.9473 29.124 66.2313 29.052 66.4953 28.908C66.7673 28.756 66.9833 28.532 67.1433 28.236C67.3033 27.94 67.3833 27.58 67.3833 27.156C67.3833 26.524 67.2153 26.04 66.8793 25.704C66.5513 25.36 66.1473 25.188 65.6673 25.188C65.1873 25.188 64.7833 25.36 64.4553 25.704C64.1353 26.04 63.9753 26.524 63.9753 27.156C63.9753 27.788 64.1313 28.276 64.4433 28.62C64.7633 28.956 65.1633 29.124 65.6433 29.124ZM72.9476 23.724C73.4436 23.724 73.8796 23.824 74.2556 24.024C74.6316 24.216 74.9276 24.468 75.1436 24.78V23.832H76.8356V30.528C76.8356 31.144 76.7116 31.692 76.4636 32.172C76.2156 32.66 75.8436 33.044 75.3476 33.324C74.8516 33.612 74.2516 33.756 73.5476 33.756C72.6036 33.756 71.8276 33.536 71.2196 33.096C70.6196 32.656 70.2796 32.056 70.1996 31.296H71.8676C71.9556 31.6 72.1436 31.84 72.4316 32.016C72.7276 32.2 73.0836 32.292 73.4996 32.292C73.9876 32.292 74.3836 32.144 74.6876 31.848C74.9916 31.56 75.1436 31.12 75.1436 30.528V29.496C74.9276 29.808 74.6276 30.068 74.2436 30.276C73.8676 30.484 73.4356 30.588 72.9476 30.588C72.3876 30.588 71.8756 30.444 71.4116 30.156C70.9476 29.868 70.5796 29.464 70.3076 28.944C70.0436 28.416 69.9116 27.812 69.9116 27.132C69.9116 26.46 70.0436 25.864 70.3076 25.344C70.5796 24.824 70.9436 24.424 71.3996 24.144C71.8636 23.864 72.3796 23.724 72.9476 23.724ZM75.1436 27.156C75.1436 26.748 75.0636 26.4 74.9036 26.112C74.7436 25.816 74.5276 25.592 74.2556 25.44C73.9836 25.28 73.6916 25.2 73.3796 25.2C73.0676 25.2 72.7796 25.276 72.5156 25.428C72.2516 25.58 72.0356 25.804 71.8676 26.1C71.7076 26.388 71.6276 26.732 71.6276 27.132C71.6276 27.532 71.7076 27.884 71.8676 28.188C72.0356 28.484 72.2516 28.712 72.5156 28.872C72.7876 29.032 73.0756 29.112 73.3796 29.112C73.6916 29.112 73.9836 29.036 74.2556 28.884C74.5276 28.724 74.7436 28.5 74.9036 28.212C75.0636 27.916 75.1436 27.564 75.1436 27.156ZM80.1564 21.6V30.48H78.4764V21.6H80.1564ZM87.9963 27.012C87.9963 27.252 87.9803 27.468 87.9483 27.66H83.0883C83.1283 28.14 83.2963 28.516 83.5923 28.788C83.8883 29.06 84.2523 29.196 84.6843 29.196C85.3083 29.196 85.7523 28.928 86.0163 28.392H87.8283C87.6363 29.032 87.2683 29.56 86.7243 29.976C86.1803 30.384 85.5123 30.588 84.7203 30.588C84.0803 30.588 83.5043 30.448 82.9923 30.168C82.4883 29.88 82.0923 29.476 81.8043 28.956C81.5243 28.436 81.3843 27.836 81.3843 27.156C81.3843 26.468 81.5243 25.864 81.8043 25.344C82.0843 24.824 82.4763 24.424 82.9803 24.144C83.4843 23.864 84.0643 23.724 84.7203 23.724C85.3523 23.724 85.9163 23.86 86.4123 24.132C86.9163 24.404 87.3043 24.792 87.5763 25.296C87.8563 25.792 87.9963 26.364 87.9963 27.012ZM86.2563 26.532C86.2483 26.1 86.0923 25.756 85.7883 25.5C85.4843 25.236 85.1123 25.104 84.6723 25.104C84.2563 25.104 83.9043 25.232 83.6163 25.488C83.3363 25.736 83.1643 26.084 83.1003 26.532H86.2563ZM98.1899 24.696C98.1899 25.144 98.0819 25.564 97.8659 25.956C97.6579 26.348 97.3259 26.664 96.8699 26.904C96.4219 27.144 95.8539 27.264 95.1659 27.264H93.7619V30.48H92.0819V22.104H95.1659C95.8139 22.104 96.3659 22.216 96.8219 22.44C97.2779 22.664 97.6179 22.972 97.8419 23.364C98.0739 23.756 98.1899 24.2 98.1899 24.696ZM95.0939 25.908C95.5579 25.908 95.9019 25.804 96.1259 25.596C96.3499 25.38 96.4619 25.08 96.4619 24.696C96.4619 23.88 96.0059 23.472 95.0939 23.472H93.7619V25.908H95.0939ZM101.063 21.6V30.48H99.3827V21.6H101.063ZM102.291 27.132C102.291 26.46 102.423 25.864 102.687 25.344C102.959 24.824 103.323 24.424 103.779 24.144C104.243 23.864 104.759 23.724 105.327 23.724C105.823 23.724 106.255 23.824 106.623 24.024C106.999 24.224 107.299 24.476 107.523 24.78V23.832H109.215V30.48H107.523V29.508C107.307 29.82 107.007 30.08 106.623 30.288C106.247 30.488 105.811 30.588 105.315 30.588C104.755 30.588 104.243 30.444 103.779 30.156C103.323 29.868 102.959 29.464 102.687 28.944C102.423 28.416 102.291 27.812 102.291 27.132ZM107.523 27.156C107.523 26.748 107.443 26.4 107.283 26.112C107.123 25.816 106.907 25.592 106.635 25.44C106.363 25.28 106.071 25.2 105.759 25.2C105.447 25.2 105.159 25.276 104.895 25.428C104.631 25.58 104.415 25.804 104.247 26.1C104.087 26.388 104.007 26.732 104.007 27.132C104.007 27.532 104.087 27.884 104.247 28.188C104.415 28.484 104.631 28.712 104.895 28.872C105.167 29.032 105.455 29.112 105.759 29.112C106.071 29.112 106.363 29.036 106.635 28.884C106.907 28.724 107.123 28.5 107.283 28.212C107.443 27.916 107.523 27.564 107.523 27.156ZM117.215 23.832L113.099 33.624H111.311L112.751 30.312L110.087 23.832H111.971L113.687 28.476L115.427 23.832H117.215Z" fill="#0E0E0E"/>
</svg>
